<svg id="Capa_1" enable-background="new 0 0 510 510" height="512" viewBox="0 0 510 510" width="512" xmlns="http://www.w3.org/2000/svg"><path d="m240.975 76.6v8.353c5.469 3.579 10.262 8.024 14.025 12.679 4.64-5.73 10.157-10.418 16.093-13.984v-7.048c0-25.349-7.78-49.654-22.498-70.284-4.829-6.776-14.236-8.343-21.012-3.514-6.766 4.829-8.343 14.235-3.514 21.002 11.064 15.5 16.906 33.752 16.906 52.796z"/><path d="m255 420.349c-11.199 20.026-25.757 36.758-49.372 39.353 3.895 15.982 15.29 30.66 25.148 40.909 12.073 12.553 31.997 12.481 44.001 0 10.019-10.421 21.634-25.419 25.329-41.713-22.73-5.128-34.531-19.638-45.106-38.549z"/><path d="m221.529 417.107c11.582-16.775 21.375-37.618 17.498-57.534-12.901-3.481-28.077-11.819-46.09-39.182-11.232 15.646-25.497 27.554-50.768 35.217-.905 26.308 5.46 45.075 34.304 67.322 15.93 12.681 35.637 7.824 45.056-5.823z"/><path d="m317.062 320.39c-18.169 27.545-33.261 35.724-46.09 39.182-1.242 6.738-1.26 12.775.231 20.098 2.801 13.974 10.34 27.397 17.267 37.436 9.782 14.18 29.376 17.562 43.429 7.068 13.964-10.491 31.282-27.166 34.514-47.063 1.185-7.289 1.656-14.507 1.416-21.504-24.74-7.524-39.285-19.222-50.767-35.217z"/><path d="m178.15 286.598c-2.368-10.907-2.155-22.027-.743-33.691-32.11 5.66-54.452-5.343-67.704-25.76-7.268 5.281-14.195 11.806-20.339 19.436-12.649 15.701-13.493 39.725-11.977 57.123 1.403 15.993 15.282 30.732 37.747 27.116 35.679-5.343 50.877-18.866 63.016-44.224z"/><path d="m420.636 246.582c-6.144-7.63-13.071-14.155-20.329-19.446-13.377 20.61-35.667 31.42-67.714 25.77 1.399 11.559 1.618 22.819-.743 33.691 11.83 24.712 27.172 39.838 66.499 44.714 17.21 2.201 32.746-10.312 34.263-27.608 1.516-17.396.673-41.42-11.976-57.121z"/><path d="m255 198.917c-10.804 19.691-24.432 35.212-45.096 44.182 0 0-3.25 11.143-3.413 25.851-.473 19.836 12.82 39.002 26.513 53.238 11.989 12.522 32.009 12.515 43.991 0 13.743-14.287 26.986-33.407 26.514-53.238-.163-14.708-3.413-25.851-3.413-25.851-18.034-8.19-31.976-20.271-45.096-44.182z"/><path d="m164.487 224.416c30.133-3.841 43.62-14.878 43.62-14.878 19.091-13.523 35.189-48.597 31.126-74.777-2.842-18.313-15.467-30.091-34.7-30.091-20.058 0-44.483 12.87-62.333 35.017-12.093 15.005-13.664 38.013-11.977 57.123 1.589 17.454 17.146 29.795 34.264 27.606z"/><path d="m301.893 209.538s13.48 11.036 43.62 14.878c17.172 2.196 32.68-10.207 34.264-27.608 1.688-19.122.112-42.122-11.977-57.123-17.849-22.146-42.275-35.017-62.333-35.017-18.121 0-30.81 10.444-34.374 28.391-5.73 28.831 14.005 64.583 30.8 76.479z"/></svg>