<svg id="Layer_3" enable-background="new 0 0 64 64" height="512" viewBox="0 0 64 64" width="512" xmlns="http://www.w3.org/2000/svg"><path d="m16 62h16c1.105 0 2-.895 2-2v-26.787c0-3.978-1.58-7.794-4.393-10.607l-1.435-1.435c-.751-.75-1.172-1.767-1.172-2.828v-16.343h-6v16.343c0 1.061-.421 2.078-1.172 2.828l-1.435 1.435c-2.813 2.814-4.393 6.629-4.393 10.607v26.787c0 1.105.895 2 2 2z" fill="#aa8058"/><path d="m31 60v-26.787c0-3.978-1.58-7.794-4.393-10.607l-1.435-1.435c-.751-.75-1.172-1.767-1.172-2.828v-16.343h-3v16.343c0 1.061-.421 2.078-1.172 2.828l-1.435 1.435c-2.813 2.814-4.393 6.629-4.393 10.607v26.787c0 1.105.895 2 2 2h13c1.105 0 2-.895 2-2z" fill="#e3aa75"/><path d="m22 34h8v22h-8z" fill="#bf6065"/><path d="m22 34h5v22h-5z" fill="#ff8087"/><path d="m4 62h16c1.105 0 2-.895 2-2v-26.787c0-3.978-1.58-7.794-4.393-10.607l-1.435-1.435c-.751-.75-1.172-1.767-1.172-2.828v-16.343h-6v16.343c0 1.061-.421 2.078-1.172 2.828l-1.435 1.435c-2.813 2.814-4.393 6.629-4.393 10.607v26.787c0 1.105.895 2 2 2z" fill="#aa8058"/><path d="m19 60v-26.787c0-3.978-1.58-7.794-4.393-10.607l-1.435-1.435c-.751-.75-1.172-1.767-1.172-2.828v-16.343h-3v16.343c0 1.061-.421 2.078-1.172 2.828l-1.435 1.435c-2.813 2.814-4.393 6.629-4.393 10.607v26.787c0 1.105.895 2 2 2h13c1.105 0 2-.895 2-2z" fill="#e3aa75"/><path d="m6 34h12v22h-12z" fill="#bf6065"/><path d="m6 34h9v22h-9z" fill="#ff8087"/><path d="m9 2h6v10h-6z" fill="#979598"/><path d="m9 2h3v10h-3z" fill="#c9c6ca"/><path d="m21 2h6v10h-6z" fill="#979598"/><path d="m21 2h3v10h-3z" fill="#c9c6ca"/><path d="m46 48c-4.418 0-8-3.582-8-8v-14h16v14c0 4.418-3.582 8-8 8z" fill="#aaa9aa"/><path d="m44.5 47.855c3.701-.703 6.5-3.95 6.5-7.855v-14h-13v14c0 3.905 2.799 7.152 6.5 7.855z" fill="#e3e1e3"/><path d="m38 40c0 4.418 3.582 8 8 8s8-3.582 8-8v-6h-16z" fill="#bf6065"/><g fill="#ff8087"><path d="m44.5 47.855c3.701-.703 6.5-3.95 6.5-7.855v-6h-13v6c0 3.905 2.799 7.152 6.5 7.855z"/><path d="m54 18c1.889-.63 3.37-2.111 4-4 .63 1.889 2.111 3.37 4 4-1.889.63-3.37 2.111-4 4-.63-1.889-2.111-3.37-4-4z"/><path d="m33 10c1.889-.63 3.37-2.111 4-4 .63 1.889 2.111 3.37 4 4-1.889.63-3.37 2.111-4 4-.63-1.889-2.111-3.37-4-4z"/></g><path d="m20 63h-16c-1.654 0-3-1.346-3-3v-26.787c0-4.274 1.664-8.292 4.687-11.314l1.435-1.435c.558-.558.878-1.331.878-2.121v-16.343c0-.552.447-1 1-1h6c.553 0 1 .448 1 1v16.343c0 .79.32 1.562.879 2.121l1.435 1.435c3.022 3.022 4.686 7.04 4.686 11.314v26.787c0 1.654-1.346 3-3 3zm-10-60v15.343c0 1.335-.521 2.591-1.465 3.535l-1.435 1.435c-2.644 2.645-4.1 6.16-4.1 9.9v26.787c0 .551.448 1 1 1h16c.552 0 1-.449 1-1v-26.787c0-3.74-1.456-7.256-4.101-9.9l-1.435-1.435c-.943-.944-1.464-2.2-1.464-3.535v-15.343z"/><path d="m18 57h-12c-.553 0-1-.448-1-1v-22c0-.552.447-1 1-1h12c.553 0 1 .448 1 1v22c0 .552-.447 1-1 1zm-11-2h10v-20h-10z"/><path d="m9 11h6v2h-6z"/><path d="m32 63h-14v-2h14c.552 0 1-.449 1-1v-26.787c0-3.74-1.456-7.256-4.101-9.9l-1.435-1.435c-.943-.944-1.464-2.2-1.464-3.535v-15.343h-4v15.343c0 1.335-.521 2.591-1.465 3.535l-1.435 1.435c-.124.125-.247.252-.367.381l-1.467-1.358c.136-.147.276-.292.419-.436l1.436-1.436c.559-.558.879-1.331.879-2.121v-16.343c0-.552.447-1 1-1h6c.553 0 1 .448 1 1v16.343c0 .79.32 1.562.879 2.121l1.435 1.435c3.022 3.022 4.686 7.04 4.686 11.314v26.787c0 1.654-1.346 3-3 3z"/><path d="m30 57h-8v-2h7v-20h-7v-2h8c.553 0 1 .448 1 1v22c0 .552-.447 1-1 1z"/><path d="m21 11h6v2h-6z"/><path d="m46 49c-4.963 0-9-4.038-9-9v-14c0-.552.447-1 1-1h16c.553 0 1 .448 1 1v14c0 4.962-4.037 9-9 9zm-7-22v13c0 3.86 3.141 7 7 7s7-3.14 7-7v-13z"/><path d="m45 48h2v14h-2z"/><path d="m38 33h16v2h-16z"/><path d="m58 23c-.431 0-.812-.275-.948-.684-.528-1.582-1.787-2.841-3.368-3.368-.409-.136-.684-.517-.684-.948s.275-.812.684-.949c1.581-.527 2.84-1.786 3.368-3.368.136-.408.517-.683.948-.683s.812.275.948.684c.528 1.582 1.787 2.841 3.368 3.368.409.136.684.517.684.948s-.275.812-.684.949c-1.581.527-2.84 1.786-3.368 3.368-.136.408-.517.683-.948.683zm-1.804-5c.7.492 1.312 1.104 1.804 1.804.492-.701 1.104-1.312 1.804-1.804-.7-.492-1.312-1.104-1.804-1.804-.492.7-1.104 1.312-1.804 1.804z"/><path d="m37 15c-.431 0-.812-.275-.948-.684-.528-1.582-1.787-2.841-3.368-3.368-.409-.136-.684-.517-.684-.948s.275-.812.684-.949c1.581-.527 2.84-1.786 3.368-3.368.136-.408.517-.683.948-.683s.812.275.948.684c.528 1.582 1.787 2.841 3.368 3.368.409.136.684.517.684.948s-.275.812-.684.949c-1.581.527-2.84 1.786-3.368 3.368-.136.408-.517.683-.948.683zm-1.804-5c.7.492 1.312 1.104 1.804 1.804.492-.701 1.104-1.312 1.804-1.804-.7-.492-1.312-1.104-1.804-1.804-.492.7-1.104 1.312-1.804 1.804z"/><path d="m41 61h10v2h-10z"/></svg>