<svg id="Layer_3" enable-background="new 0 0 64 64" height="512" viewBox="0 0 64 64" width="512" xmlns="http://www.w3.org/2000/svg"><path d="m18 33h-12c-.553 0-1 .448-1 1v22c0 .552.447 1 1 1h12c.553 0 1-.448 1-1v-22c0-.552-.447-1-1-1zm-1 22h-10v-20h10z"/><path d="m28.879 20.464c-.559-.558-.879-1.331-.879-2.121v-16.343c0-.552-.447-1-1-1h-6c-.553 0-1 .448-1 1v16.343c0 .79-.32 1.562-.879 2.121l-1.121 1.122-1.121-1.121c-.559-.559-.879-1.332-.879-2.122v-16.343c0-.552-.447-1-1-1h-6c-.553 0-1 .448-1 1v16.343c0 .79-.32 1.562-.879 2.121l-1.435 1.435c-3.022 3.022-4.686 7.04-4.686 11.314v26.787c0 1.654 1.346 3 3 3h14 2 12c1.654 0 3-1.346 3-3v-26.787c0-4.274-1.664-8.292-4.687-11.314zm-2.879-17.464v8h-4v-8zm-12 0v8h-4v-8zm4 58h-14c-.552 0-1-.449-1-1v-26.787c0-3.74 1.456-7.256 4.101-9.9l1.435-1.435c.943-.944 1.464-2.2 1.464-3.535v-5.343h4v5.343c0 1.335.521 2.591 1.465 3.535l1.435 1.435c2.645 2.644 4.101 6.16 4.101 9.9v26.787c0 .551-.448 1-1 1zm5-26h6v20h-6zm10 25c0 .551-.448 1-1 1h-9.184c.112-.314.184-.648.184-1v-3h7c.553 0 1-.448 1-1v-22c0-.552-.447-1-1-1h-7.01c-.048-3.672-1.318-7.145-3.629-9.947l1.175-1.175c.944-.944 1.465-2.2 1.465-3.535v-5.343h4v5.343c0 1.335.521 2.591 1.465 3.535l1.435 1.435c2.645 2.644 4.101 6.16 4.101 9.9v26.787z"/><path d="m54 25h-16c-.553 0-1 .448-1 1v14c0 4.624 3.507 8.442 8 8.941v12.059h-4v2h10v-2h-4v-12.059c4.493-.5 8-4.317 8-8.941v-14c0-.552-.447-1-1-1zm-1 2v6h-14v-6zm-7 20c-3.859 0-7-3.14-7-7v-5h14v5c0 3.86-3.141 7-7 7z"/><path d="m62.316 17.051c-1.581-.527-2.84-1.786-3.368-3.368-.136-.408-.517-.683-.948-.683s-.812.275-.948.684c-.528 1.582-1.787 2.841-3.368 3.368-.409.136-.684.517-.684.948s.275.812.684.949c1.581.527 2.84 1.786 3.368 3.368.136.408.517.683.948.683s.812-.275.948-.684c.528-1.582 1.787-2.841 3.368-3.368.409-.136.684-.517.684-.948s-.275-.812-.684-.949zm-4.316 2.753c-.492-.701-1.104-1.312-1.804-1.804.7-.492 1.312-1.104 1.804-1.804.492.701 1.104 1.312 1.804 1.804-.7.492-1.312 1.104-1.804 1.804z"/><path d="m37.948 14.316c.528-1.582 1.787-2.841 3.368-3.368.409-.136.684-.517.684-.948s-.275-.812-.684-.949c-1.581-.527-2.84-1.786-3.368-3.368-.136-.408-.517-.683-.948-.683s-.812.275-.948.684c-.528 1.582-1.787 2.841-3.368 3.368-.409.136-.684.517-.684.948s.275.812.684.949c1.581.527 2.84 1.786 3.368 3.368.136.408.517.683.948.683s.812-.275.948-.684zm-2.752-4.316c.7-.492 1.312-1.104 1.804-1.804.492.701 1.104 1.312 1.804 1.804-.7.492-1.312 1.104-1.804 1.804-.492-.7-1.104-1.312-1.804-1.804z"/></svg>