<svg enable-background="new 0 0 60 60" height="512" viewBox="0 0 60 60" width="512" xmlns="http://www.w3.org/2000/svg"><path d="m22.221 19.442c-.803-1.606-1.221-3.377-1.221-5.172 0-.844-.092-1.685-.275-2.509l-1.725-7.761v-1h-8v1l-1.725 7.761c-.183.823-.275 1.665-.275 2.509 0 1.796-.418 3.567-1.221 5.172-1.17 2.34-1.779 4.92-1.779 7.536v23.022h18v-23.022c0-2.616-.609-5.196-1.779-7.536z" fill="#426d5f"/><path d="m52 17h-8-8s-3 3-3 7c0 6.08 4.92 11 11 11s11-4.92 11-11c0-4-3-7-3-7z" fill="#c6e2f7"/><path d="m37 24c0 3.859 3.14 7 7 7s7-3.141 7-7z" fill="#dd352e"/><path d="m46 45h-4c-2.209 0-4 1.791-4 4v1h12v-1c0-2.209-1.791-4-4-4z" fill="#c6e2f7"/><path d="m19.5 5h-9c-.828 0-1.5-.895-1.5-2 0-1.105.672-2 1.5-2h9c.828 0 1.5.895 1.5 2 0 1.105-.672 2-1.5 2z" fill="#426d5f"/><path d="m6 26h18v18h-18z" fill="#f7e6a1"/><path d="m11.464 31.464h7.071v7.071h-7.071z" fill="#c4a214" transform="matrix(.707 -.707 .707 .707 -20.355 20.858)"/><path d="m9 53v2c0 2.209 1.791 4 4 4h34c2.209 0 4-1.791 4-4v-2z" fill="#afb6bb"/><path d="m53 55h-46c-3.314 0-6-2.686-6-6h58c0 3.314-2.686 6-6 6z" fill="#e7eced"/><g fill="#4d007e"><path d="m44 36c-6.617 0-12-5.383-12-12 0-4.364 3.158-7.572 3.293-7.707.187-.188.442-.293.707-.293h16c.265 0 .52.105.707.293.135.135 3.293 3.343 3.293 7.707 0 6.617-5.383 12-12 12zm-7.556-18c-.68.799-2.444 3.145-2.444 6 0 5.514 4.486 10 10 10s10-4.486 10-10c0-2.873-1.76-5.205-2.442-6z"/><path d="m44 32c-4.411 0-8-3.589-8-8 0-.553.448-1 1-1h14c.552 0 1 .447 1 1 0 4.411-3.589 8-8 8zm-5.917-7c.478 2.834 2.949 5 5.917 5s5.439-2.166 5.917-5z"/><path d="m50 50h-12c-.552 0-1-.447-1-1 0-2.757 2.243-5 5-5h4c2.757 0 5 2.243 5 5 0 .553-.448 1-1 1zm-10.829-2h9.657c-.413-1.164-1.525-2-2.829-2h-4c-1.303 0-2.415.836-2.828 2z"/><path d="m44 46c-.552 0-1-.447-1-1v-10c0-.553.448-1 1-1s1 .447 1 1v10c0 .553-.448 1-1 1z"/><path d="m43.999 25c-.201 0-.404-.061-.581-.187-.449-.32-.553-.945-.232-1.395l10-14c.321-.45.946-.554 1.395-.232.449.32.553.945.232 1.395l-10 14c-.194.273-.502.419-.814.419z"/><path d="m53 56h-46c-3.86 0-7-3.141-7-7 0-.553.448-1 1-1h58c.552 0 1 .447 1 1 0 3.859-3.14 7-7 7zm-50.9-6c.465 2.279 2.485 4 4.9 4h46c2.415 0 4.435-1.721 4.9-4z"/><path d="m47 60h-34c-2.757 0-5-2.243-5-5 0-.553.448-1 1-1h42c.552 0 1 .447 1 1 0 2.757-2.243 5-5 5zm-36.829-4c.413 1.164 1.525 2 2.829 2h34c1.304 0 2.416-.836 2.829-2z"/><path d="m13.001 14c-.061 0-.123-.006-.186-.018-.543-.102-.9-.624-.799-1.167.194-1.036.451-2.013.699-2.957.178-.679.358-1.362.517-2.075.12-.539.654-.874 1.193-.76.539.12.879.654.759 1.193-.164.739-.35 1.446-.534 2.15-.25.952-.486 1.851-.667 2.817-.09.482-.51.817-.982.817z"/><path d="m11.356 22.231c-.149 0-.301-.033-.443-.104-.495-.245-.697-.845-.452-1.34.173-.35.339-.662.494-.956.546-1.034.907-1.718 1.052-2.948.065-.549.561-.941 1.111-.876.549.065.94.562.876 1.11-.189 1.601-.69 2.549-1.27 3.647-.148.279-.305.578-.47.911-.176.352-.53.556-.898.556z"/><path d="m15 41c-.256 0-.512-.098-.707-.293l-5-5c-.391-.391-.391-1.023 0-1.414l5-5c.39-.391 1.024-.391 1.414 0l5 5c.391.391.391 1.023 0 1.414l-5 5c-.195.195-.451.293-.707.293zm-3.586-6 3.586 3.586 3.586-3.586-3.586-3.586z"/><path d="m24 45h-18c-.552 0-1-.447-1-1v-18c0-.553.448-1 1-1h18c.552 0 1 .447 1 1v18c0 .553-.448 1-1 1zm-17-2h16v-16h-16z"/><path d="m24 50h-18c-.552 0-1-.448-1-1v-22.022c0-2.757.652-5.518 1.885-7.983.729-1.46 1.115-3.094 1.115-4.725 0-.916.101-1.833.299-2.726l1.732-6.791c.113-.443.512-.753.969-.753h8c.457 0 .856.31.969.753l1.725 6.761c.205.923.306 1.84.306 2.756 0 1.632.386 3.266 1.115 4.725 1.233 2.465 1.885 5.226 1.885 7.983v22.022c0 .552-.448 1-1 1zm-17-2h16v-21.022c0-2.448-.579-4.899-1.674-7.089-.867-1.736-1.326-3.679-1.326-5.619 0-.77-.085-1.541-.251-2.292l-1.526-5.978h-6.446l-1.532 6.008c-.16.721-.245 1.492-.245 2.262 0 1.941-.459 3.884-1.326 5.62-1.095 2.189-1.674 4.64-1.674 7.088z"/><path d="m19 6h-8c-1.654 0-3-1.346-3-3s1.346-3 3-3h8c1.654 0 3 1.346 3 3s-1.346 3-3 3zm-8-4c-.552 0-1 .449-1 1s.448 1 1 1h8c.552 0 1-.449 1-1s-.448-1-1-1z"/></g></svg>